<?xml version="1.0" encoding="UTF-8"?>
<svg width="192px" height="184px" viewBox="0 0 192 184" version="1.1" xmlns="http://www.w3.org/2000/svg" xmlns:xlink="http://www.w3.org/1999/xlink">
    <!-- Generator: Sketch 51.2 (57519) - http://www.bohemiancoding.com/sketch -->
    <title>Dribbble@1x</title>
    <desc>Created with Sketch.</desc>
    <defs>
        <rect id="path-1" x="0" y="0" width="226" height="222"></rect>
        <linearGradient x1="7.10769837%" y1="6.87174141%" x2="121.66812%" y2="116.388561%" id="linearGradient-3">
            <stop stop-color="#FFFFFF" stop-opacity="0" offset="0%"></stop>
            <stop stop-color="#FFFFFF" offset="100%"></stop>
        </linearGradient>
    </defs>
    <g id="Page-1" stroke="none" stroke-width="1" fill="none" fill-rule="evenodd">
        <g id="Home" transform="translate(-969.000000, -687.000000)">
            <g id="Group-36" transform="translate(203.000000, 649.000000)">
                <g id="Dribbble">
                    <g transform="translate(732.000000, 0.000000)">
                        <mask id="mask-2" fill="white">
                            <use xlink:href="#path-1"></use>
                        </mask>
                        <g id="Mask"></g>
                        <g mask="url(#mask-2)" fill="url(#linearGradient-3)" fill-rule="nonzero" id="Shape">
                            <g transform="translate(34.000000, 38.000000)">
                                <path d="M112.432,84.9888 C95.0496,54.0896 76.4512,28.8864 75.0944,27.0304 C46.6397919,40.4909417 26.1056719,66.4698942 19.5808,97.264 C22.2176,97.3152 64.1504,97.8144 112.432,84.9888 Z M124.9504,118.7808 C126.262841,118.360399 127.581383,117.959289 128.9056,117.5776 C126.3492,111.801741 123.63025,106.099202 120.752,100.4768 C68.9632,115.9904 19.2736,114.864 17.52,114.8128 C17.4816,115.888 17.4304,116.9376 17.4304,118.0128 C17.4304,143.856 27.1968,167.4336 43.2352,185.2384 L43.1712,185.1616 C43.1712,185.1616 70.6912,136.3424 124.9504,118.7808 Z M56.1888,197.2832 L56.1888,197.232 C55.4464,196.656 54.6528,196.1312 53.9104,195.504 C55.2672,196.592 56.1888,197.2832 56.1888,197.2832 Z M93.9104,20.3616 C93.8466459,20.3795757 93.7826394,20.3966441 93.7184,20.4128 C93.7952,20.3872 93.8976,20.3872 93.8976,20.3872 L93.9104,20.3616 Z M184.4192,42.5312 C166.084383,26.3393644 142.461004,17.4117393 118,17.4304 C109.8208,17.4304 101.8976,18.4288 94.2944,20.2592 C95.8304,22.3072 114.7104,47.3824 131.9008,78.9344 C169.8144,64.7392 184.1376,42.9408 184.4192,42.5312 Z M118,235.76 C52.9729449,235.752932 0.259867774,183.039855 0.2528,118.0128 C0.246009493,86.7798657 12.6484846,56.8238275 34.7311041,34.7364069 C56.8137236,12.6489863 86.7670649,0.239999262 118,0.24 C149.234112,0.239999815 179.188768,12.6485784 201.27342,34.7356308 C223.358072,56.8226832 235.763395,86.7786885 235.76,118.0128 C235.752931,183.044853 183.032054,235.76 118,235.76 Z M135.1008,134.4608 C76.08,155.0304 56.5856,196.3872 56.1888,197.232 C73.8200519,211.058195 95.5812944,218.567356 117.9872,218.5568 C131.47461,218.575693 144.827082,215.872111 157.2448,210.608 C155.76,201.7888 149.9104,170.9792 135.7536,134.2304 C135.537437,134.311213 135.3198,134.388026 135.1008,134.4608 Z M139.632,93.936 C141.9872,98.7104 144.2144,103.5872 146.3264,108.5152 C147.0816,110.2432 147.7856,111.9968 148.5024,113.712 C183.2288,109.3344 217.4304,116.7584 218.5568,116.9888 C218.34877,94.0314668 210.275293,71.8395691 195.6832,54.1152 C195.4528,54.4096 179.312,77.7056 139.632,93.936 Z M154.6208,129.584 C167.8176,165.8848 173.168,195.4016 174.192,201.4048 C197.271943,185.85061 212.875258,161.428432 217.2896,133.9488 C215.2928,133.3088 187.1328,124.3872 154.6208,129.584 Z"></path>
                            </g>
                        </g>
                    </g>
                </g>
            </g>
        </g>
    </g>
</svg>