<?xml version="1.0" encoding="UTF-8"?>
<svg width="21px" height="18px" viewBox="0 0 21 18" version="1.1" xmlns="http://www.w3.org/2000/svg" xmlns:xlink="http://www.w3.org/1999/xlink">
    <!-- Generator: Sketch 46.1 (44463) - http://www.bohemiancoding.com/sketch -->
    <title>Group 5</title>
    <desc>Created with Sketch.</desc>
    <defs></defs>
    <g id="Page-1" stroke="none" stroke-width="1" fill="none" fill-rule="evenodd">
        <g id="Home" transform="translate(-207.000000, -115.000000)" fill="#FFFFFF">
            <g id="Group-5" transform="translate(207.000000, 115.000000)">
                <path d="M1.93089548,13.2732934 L9.96097124,13.2732934 L9.96097124,13.2732934 C10.2371136,13.2732934 10.4609712,13.0494358 10.4609712,12.7732934 L10.4609712,7.98861976 L10.4609712,7.98861976 C10.4609712,7.87816281 10.5505143,7.78861976 10.6609712,7.78861976 L15.7002428,7.78861976 L20.7792843,16.2536889 C20.8725335,16.4091043 20.9217913,16.5869407 20.9217913,16.7681846 C20.9217913,17.3204694 20.4740761,17.7681846 19.9217913,17.7681846 L19.9217913,17.7681846 L1.00015113,17.7681846 L1.00015113,17.7681846 C0.818907182,17.7681846 0.641070774,17.7189268 0.485655373,17.6256776 C0.0120751067,17.3415294 -0.141489957,16.7272692 0.142658202,16.2536889 L0.142658202,16.2536889 L1.93089548,13.2732934 Z M2.67936285,12.0258478 L9.60347831,0.485655373 C9.68792807,0.344905769 9.80572588,0.227107965 9.94647548,0.142658202 C10.4200557,-0.141489957 11.034316,0.0120751067 11.3184642,0.485655373 L11.3184642,0.485655373 L14.9517754,6.54117415 L9.71352563,6.54117415 L9.71352563,6.54117415 C9.43738325,6.54117415 9.21352563,6.76503178 9.21352563,7.04117415 L9.21352563,11.8258478 L9.21352563,11.8258478 C9.21352563,11.9363048 9.12398258,12.0258478 9.01352563,12.0258478 L2.67936285,12.0258478 Z" id="Combined-Shape"></path>
            </g>
        </g>
    </g>
</svg>