<?xml version="1.0" encoding="UTF-8"?>
<svg width="16px" height="20px" viewBox="0 0 16 20" version="1.1" xmlns="http://www.w3.org/2000/svg" xmlns:xlink="http://www.w3.org/1999/xlink">
    <!-- Generator: Sketch 46.1 (44463) - http://www.bohemiancoding.com/sketch -->
    <title>ic_book_black_24px</title>
    <desc>Created with Sketch.</desc>
    <defs></defs>
    <g id="Page-1" stroke="none" stroke-width="1" fill="none" fill-rule="evenodd">
        <g id="Artboard" transform="translate(-563.000000, -593.000000)">
            <g id="Group-6" transform="translate(211.000000, 120.000000)">
                <g id="Group">
                    <g id="Group-8" transform="translate(0.000000, 438.000000)">
                        <g id="Group-5" transform="translate(164.000000, 33.000000)">
                            <g id="Group-4" transform="translate(183.000000, 0.000000)">
                                <g id="ic_book_black_24px" transform="translate(1.000000, 0.000000)">
                                    <polygon id="Shape" points="0 0 24 0 24 24 0 24"></polygon>
                                    <path d="M18,2 L6,2 C4.9,2 4,2.9 4,4 L4,20 C4,21.1 4.9,22 6,22 L18,22 C19.1,22 20,21.1 20,20 L20,4 C20,2.9 19.1,2 18,2 Z M6,4 L11,4 L11,12 L8.5,10.5 L6,12 L6,4 Z" id="Shape" fill="#FFFFFF" fill-rule="nonzero"></path>
                                </g>
                            </g>
                        </g>
                    </g>
                </g>
            </g>
        </g>
    </g>
</svg>