<?xml version="1.0" encoding="UTF-8"?>
<svg width="16px" height="25px" viewBox="0 0 16 25" version="1.1" xmlns="http://www.w3.org/2000/svg" xmlns:xlink="http://www.w3.org/1999/xlink">
    <!-- Generator: Sketch 46.1 (44463) - http://www.bohemiancoding.com/sketch -->
    <title>Group 9</title>
    <desc>Created with Sketch.</desc>
    <defs></defs>
    <g id="Page-1" stroke="none" stroke-width="1" fill="none" fill-rule="evenodd">
        <g id="Artboard" transform="translate(-674.000000, -591.000000)">
            <g id="Group-6" transform="translate(211.000000, 120.000000)">
                <g id="Group">
                    <g id="Group-8" transform="translate(0.000000, 438.000000)">
                        <g id="Group-5" transform="translate(164.000000, 33.000000)">
                            <g id="Group-4" transform="translate(294.000000, 0.000000)">
                                <g id="Group-9">
                                    <g id="Page-1" transform="translate(5.000000, 0.000000)" fill="#FFFFFF">
                                        <path d="M12.1906286,24.1695175 L0,24.1695175 L0,10.5489035 C0,10.5489035 0.184685714,12.5671053 3.35634286,14.3787281 C5.58628571,15.652193 7.92091429,15.545614 7.92091429,15.545614 L12.1906286,24.1695175 Z" id="Fill-1"></path>
                                        <path d="M7.86651429,0 C12.2082286,0 15.7332571,3.33114035 15.7332571,7.43421053 C15.7332571,11.5372807 12.2082286,14.8684211 7.86651429,14.8684211 C3.52502857,14.8684211 0,11.5372807 0,7.43421053 C0,3.33114035 3.52502857,0 7.86651429,0 Z" id="Fill-2"></path>
                                    </g>
                                    <polygon id="Shape" points="0 0 24 0 24 24 0 24"></polygon>
                                </g>
                            </g>
                        </g>
                    </g>
                </g>
            </g>
        </g>
    </g>
</svg>